<?xml version="1.0" encoding="UTF-8"?>
<svg version="1.1" xmlns="http://www.w3.org/2000/svg" width="466" height="344">
<path d="M0 0 C5.56818182 0.56818182 5.56818182 0.56818182 7 2 C7.09944475 3.50518078 7.13080237 5.01497656 7.1328125 6.5234375 C7.13482666 7.45776611 7.13684082 8.39209473 7.13891602 9.35473633 C7.13202759 10.84976685 7.13202759 10.84976685 7.125 12.375 C7.12234131 13.37619873 7.11968262 14.37739746 7.11694336 15.40893555 C6.99745297 34.00254703 6.99745297 34.00254703 5 36 C4.92820036 37.51928038 4.91607993 39.04167482 4.9375 40.5625 C4.95103516 41.80193359 4.95103516 41.80193359 4.96484375 43.06640625 C4.97644531 43.70449219 4.98804688 44.34257813 5 45 C4.34 45 3.68 45 3 45 C3.0928125 46.7325 3.0928125 46.7325 3.1875 48.5 C3.2225704 55.78295298 1.4636936 62.89934355 0 70 C-0.66 70 -1.32 70 -2 70 C-2 79.9 -2 89.8 -2 100 C-1.34 100 -0.68 100 0 100 C0.05534912 101.02472412 0.11069824 102.04944824 0.16772461 103.10522461 C0.37361736 106.89423139 0.58564417 110.68287398 0.79956055 114.47143555 C0.89141481 116.11359477 0.98158805 117.75584889 1.07006836 119.39819336 C1.19727543 121.75401139 1.33045404 124.10942594 1.46484375 126.46484375 C1.52272316 127.57266457 1.52272316 127.57266457 1.58177185 128.7028656 C1.49667404 132.14524707 1.49667404 132.14524707 3 135 C12.63064687 132.35684436 22.12435418 129.56493198 31.29296875 125.5625 C35.25072036 123.85224139 39.29780541 122.45792065 43.375 121.0625 C48.70911421 119.21464518 53.87868198 117.24886512 58.9921875 114.84765625 C61.15580218 113.93422359 63.291671 113.34581157 65.5625 112.75 C71.21787524 111.1760984 76.2401271 108.47771523 81.37915039 105.69238281 C85.04322184 103.75732748 87.82182789 102.38129444 92 103 C93.875 104.25 93.875 104.25 95 106 C94.72963853 108.97397616 94.14553974 109.85446026 92 112 C89.44696302 113.03798446 86.90494573 114.00945586 84.3125 114.9375 C77.09205517 117.55399113 70.10048642 120.45317728 63.1875 123.8125 C57.07866712 126.65529405 50.86585464 128.81495645 44.45947266 130.88549805 C39.65161391 132.43971407 34.95668491 134.13529406 30.28515625 136.06640625 C23.38298658 138.88626702 16.36938579 141.27875522 9.19140625 143.2890625 C6.99148907 144.00276112 5.0382403 144.91355756 3 146 C4.93969163 154.01058409 4.93969163 154.01058409 7.1875 161.9375 C7.94398962 164.78888396 8.17755066 167.07041409 8 170 C8.66 170 9.32 170 10 170 C10.50196571 172.95801222 11.00165835 175.91637705 11.5 178.875 C11.64308594 179.71675781 11.78617187 180.55851563 11.93359375 181.42578125 C12.06894531 182.23144531 12.20429688 183.03710938 12.34375 183.8671875 C12.46943359 184.61081543 12.59511719 185.35444336 12.72460938 186.12060547 C13 188 13 188 13 190 C13.66 190 14.32 190 15 190 C15.66123445 194.46333256 16.11882576 198.86260598 16.25 203.375 C16.27578125 204.20773437 16.3015625 205.04046875 16.328125 205.8984375 C16.16570312 206.93871094 16.16570312 206.93871094 16 208 C13 210 13 210 9.73828125 209.7890625 C0.40372969 207.81876008 -7.96685305 203.43753159 -15.58203125 197.78515625 C-23.59245242 191.87116194 -32.33251595 186.87765297 -41 182 C-41.82113281 181.53464844 -42.64226562 181.06929687 -43.48828125 180.58984375 C-49.48658434 177.37962262 -55.64196391 175.51707299 -62.19140625 173.796875 C-65 173 -65 173 -66 172 C-71.57301265 171.63455655 -73.55566217 171.62401261 -78 175 C-80.26171875 175.58984375 -80.26171875 175.58984375 -82.6875 175.9375 C-86.95882768 176.70001568 -90.42381523 177.94019979 -94.32421875 179.796875 C-97.80470812 181.36182497 -101.35901572 182.67784074 -104.9375 184 C-110.26031211 185.97157158 -115.55462776 187.98845488 -120.8125 190.12890625 C-123.02594424 191.01033137 -125.25773057 191.82018544 -127.5 192.625 C-130.99559281 193.72920253 -130.99559281 193.72920253 -133 196 C-135.1041645 196.82601499 -137.23408308 197.58704581 -139.375 198.3125 C-145.11151781 200.28981527 -150.70665319 202.48306535 -156.28125 204.88671875 C-161.36786211 206.96959871 -166.58338873 208.47022694 -171.875 209.9375 C-177.43508188 211.50743637 -177.43508188 211.50743637 -182.875 213.4375 C-191.94112949 216.99361114 -201.44964064 220.03428106 -211.08203125 221.54296875 C-213.31113682 221.95701298 -213.31113682 221.95701298 -216 224 C-218.04296875 224.4140625 -218.04296875 224.4140625 -220.1875 224.625 C-221.445625 224.74875 -222.70375 224.8725 -224 225 C-224.33 226.65 -224.66 228.3 -225 230 C-225.66 230 -226.32 230 -227 230 C-227.11601562 230.59167969 -227.23203125 231.18335938 -227.3515625 231.79296875 C-228.03646843 234.12412449 -228.8823876 235.41733455 -230.375 237.3125 C-232.88225944 240.68185438 -234.40095919 244.10668326 -236 248 C-237.27301404 250.37412472 -238.62743913 252.68084543 -240 255 C-244.875 254.125 -244.875 254.125 -246 253 C-246.26082233 248.4790796 -246.12974043 245.03529767 -244 241 C-243.30390625 240.33291016 -243.30390625 240.33291016 -242.59375 239.65234375 C-240.71306272 237.70251356 -239.59095207 235.69664035 -238.3125 233.3125 C-237.54166667 231.875 -236.77083333 230.4375 -236 229 C-236.67844971 229.14219971 -237.35689941 229.28439941 -238.0559082 229.4309082 C-246.10477243 230.96080222 -253.93775143 231.27990585 -262.0949707 231.20581055 C-264.22293711 231.18718991 -266.35047507 231.18530403 -268.47851562 231.18554688 C-278.85200026 231.14799974 -278.85200026 231.14799974 -280 230 C-280.46516854 224.6505618 -280.46516854 224.6505618 -278.921875 222.4921875 C-276.2012296 220.37981648 -273.18528701 219.22700174 -270 218 C-268.99839844 217.60482178 -268.99839844 217.60482178 -267.9765625 217.20166016 C-263.16910788 215.34475778 -258.33290208 213.96335654 -253.3359375 212.703125 C-250.63623923 211.89050679 -248.38724598 210.60554638 -246.0078125 209.10546875 C-242.22499315 207.02271024 -238.11794887 205.66914255 -234.08203125 204.15625 C-230.65969287 202.87233091 -227.3318828 201.50261381 -224 200 C-222.98292969 199.57460938 -222.98292969 199.57460938 -221.9453125 199.140625 C-216.96950686 196.9170049 -214.71246577 194.88243838 -212 190 C-211.02342289 188.39425556 -210.04401673 186.79022985 -209.0625 185.1875 C-205.12843774 178.58105706 -201.38285946 171.90667139 -198 165 C-197.1052481 163.20779302 -196.20933805 161.41616395 -195.3125 159.625 C-194.87550781 158.75101563 -194.43851562 157.87703125 -193.98828125 156.9765625 C-193.66214844 156.32429687 -193.33601563 155.67203125 -193 155 C-202.68177199 149.60055024 -213.70304422 146.880123 -224.80078125 146.8671875 C-226.38922852 146.86525391 -226.38922852 146.86525391 -228.00976562 146.86328125 C-229.09966797 146.86714844 -230.18957031 146.87101563 -231.3125 146.875 C-232.42173828 146.87113281 -233.53097656 146.86726562 -234.67382812 146.86328125 C-235.72634766 146.86457031 -236.77886719 146.86585938 -237.86328125 146.8671875 C-239.30634644 146.86887939 -239.30634644 146.86887939 -240.77856445 146.87060547 C-242.97306099 146.75146356 -242.97306099 146.75146356 -244 148 C-244.78375 147.95875 -245.5675 147.9175 -246.375 147.875 C-249.77638315 147.99228907 -252.25889562 148.55504586 -255.5 149.5 C-259.45459712 150.63372282 -262.85356033 151.51830496 -267 151 C-267.99 150.34 -268.98 149.68 -270 149 C-270.1875 146.375 -270.1875 146.375 -270 144 C-263.17001063 140.33204275 -256.6215961 139.06132176 -249.03369141 137.9519043 C-245.1989742 137.7201947 -245.1989742 137.7201947 -242 136 C-240.44332237 135.79464702 -238.87831961 135.65187839 -237.3125 135.53515625 C-235.81589844 135.41998657 -235.81589844 135.41998657 -234.2890625 135.30249023 C-233.20367187 135.22329346 -232.11828125 135.14409668 -231 135.0625 C-229.89398438 134.97750244 -228.78796875 134.89250488 -227.6484375 134.80493164 C-222.8937337 134.4396754 -218.13824438 134.08512249 -213.3828125 133.72949219 C-209.9215865 133.46914286 -206.46079839 133.20346316 -203 132.9375 C-201.91460937 132.85830322 -200.82921875 132.77910645 -199.7109375 132.69750977 C-198.21433594 132.58234009 -198.21433594 132.58234009 -196.6875 132.46484375 C-195.36298828 132.36610962 -195.36298828 132.36610962 -194.01171875 132.26538086 C-192.00545955 132.20831114 -192.00545955 132.20831114 -191 131 C-189.14712498 130.92773498 -187.29166122 130.9161878 -185.4375 130.9375 C-184.42558594 130.94652344 -183.41367188 130.95554688 -182.37109375 130.96484375 C-181.19740234 130.98224609 -181.19740234 130.98224609 -180 131 C-179.82984375 129.70449219 -179.82984375 129.70449219 -179.65625 128.3828125 C-178.98515144 124.92345923 -177.91624112 122.09447837 -176.5 118.875 C-175.06646284 115.59953428 -173.7378709 112.50488679 -173 109 C-172.34 109 -171.68 109 -171 109 C-170.90203125 108.18917969 -170.8040625 107.37835938 -170.703125 106.54296875 C-169.80004954 99.85553925 -168.41944276 93.97092166 -165.9453125 87.703125 C-164.66058792 84.02944975 -164.05420162 80.35015392 -163.4921875 76.5078125 C-163 74 -163 74 -161.98046875 71.7890625 C-160.53055774 67.66461446 -160.57098411 63.59311699 -160.4375 59.25 C-160.37782916 57.52589373 -160.31424366 55.80191693 -160.24609375 54.078125 C-160.21020142 52.93972168 -160.21020142 52.93972168 -160.17358398 51.77832031 C-160 50 -160 50 -159 49 C-154.96839809 48.73706944 -153.44107266 48.70595156 -150 51 C-149.68445658 53.53165428 -149.558719 55.83095268 -149.55859375 58.3671875 C-149.54611099 59.11027161 -149.53362823 59.85335571 -149.52076721 60.61895752 C-149.49473228 62.21205098 -149.47492124 63.80525588 -149.46069336 65.39849854 C-149.42217718 69.51111441 -149.33485815 73.62258057 -149.24609375 77.734375 C-149.22100235 78.94355087 -149.22100235 78.94355087 -149.19540405 80.17715454 C-149.04831571 86.52030893 -148.66966497 92.81378642 -148 99.125 C-147.9167749 99.92147949 -147.8335498 100.71795898 -147.74780273 101.53857422 C-147.33045449 105.39342096 -147.33045449 105.39342096 -146 109 C-145.95571559 110.35344237 -145.96069412 111.7089039 -146 113.0625 C-146 114.361875 -146 115.66125 -146 117 C-145.67 117.33 -145.34 117.66 -145 118 C-144.95907063 120.33297433 -144.95758277 122.66705225 -145 125 C-141.00872432 124.27343283 -137.01855824 123.54102779 -133.03125 122.79296875 C-132.35642578 122.66688232 -131.68160156 122.5407959 -130.98632812 122.41088867 C-128.96612236 121.99299212 -126.98877799 121.48450546 -125 120.9375 C-121.01941729 119.87541627 -116.95447616 119.39366313 -112.875 118.875 C-111.85212891 118.74339478 -111.85212891 118.74339478 -110.80859375 118.60913086 C-106.84918262 118.13108792 -102.98664394 117.91306384 -99 118 C-99.07001221 117.43982178 -99.14002441 116.87964355 -99.2121582 116.30249023 C-100.0548462 108.88221639 -100.18349844 101.52540042 -100.1875 94.0625 C-100.19974609 92.86431641 -100.21199219 91.66613281 -100.22460938 90.43164062 C-100.2421584 79.69748524 -98.73822081 70.04846533 -95 60 C-94.61585938 58.93136719 -94.23171875 57.86273438 -93.8359375 56.76171875 C-91.71036363 51.00441283 -89.58413952 46.01779533 -86 41 C-85.525625 39.824375 -85.05125 38.64875 -84.5625 37.4375 C-82.87690583 33.72919283 -81.0941014 31.6180858 -78 29 C-77.34 29 -76.68 29 -76 29 C-75.79375 28.4225 -75.5875 27.845 -75.375 27.25 C-73.39828244 24.01537126 -71.35785899 22.74111207 -68 21 C-62.94263518 20.19724368 -60.17355556 20.41061829 -56 23.4375 C-53.51126451 25.88088268 -52.535555 27.50270511 -52.4375 31 C-52.57227283 32.67175665 -52.76881838 34.338829 -53 36 C-53.23396484 37.82724609 -53.23396484 37.82724609 -53.47265625 39.69140625 C-53.94178568 43.13516379 -54.45319724 46.56783626 -55 50 C-55.66 50 -56.32 50 -57 50 C-57.185625 51.7015625 -57.185625 51.7015625 -57.375 53.4375 C-58.23102839 60.17872354 -59.70932119 66.32930637 -62.13964844 72.68554688 C-63.7742081 77.08271645 -65.21618946 81.54613719 -66.6875 86 C-67.00783203 86.96550781 -67.32816406 87.93101562 -67.65820312 88.92578125 C-68.44018549 91.28339972 -69.22075345 93.64147617 -70 96 C-70.66 96 -71.32 96 -72 96 C-72.185625 97.794375 -72.185625 97.794375 -72.375 99.625 C-72.82325054 103.27596813 -73.70446837 106.54524899 -75 110 C-75.66 110 -76.32 110 -77 110 C-77.144375 111.175625 -77.28875 112.35125 -77.4375 113.5625 C-77.53289062 114.29082031 -77.62828125 115.01914063 -77.7265625 115.76953125 C-77.97029375 117.75768184 -78.14615703 119.75388435 -78.3125 121.75 C-79.10070182 125.47604498 -80.19481256 126.54546099 -83 129 C-86.25868779 138.77606338 -83.56456954 151.02586919 -82 161 C-79.56089338 160.89671437 -79.56089338 160.89671437 -77 160 C-75.52952097 157.71439733 -75.52952097 157.71439733 -74.6875 154.9375 C-74.36136719 154.01839844 -74.03523437 153.09929687 -73.69921875 152.15234375 C-73.46847656 151.44207031 -73.23773438 150.73179687 -73 150 C-72.34 150 -71.68 150 -71 150 C-69.85948394 145.01716284 -68.77774134 140.05531868 -68 135 C-67.34 135 -66.68 135 -66 135 C-65.92652344 133.91912109 -65.92652344 133.91912109 -65.8515625 132.81640625 C-64.99655979 120.5367984 -63.99279942 108.26909329 -63 96 C-60.1875 95.375 -60.1875 95.375 -57 95 C-56.01 95.66 -55.02 96.32 -54 97 C-53.47583008 100.07275391 -53.47583008 100.07275391 -53.26953125 103.9765625 C-53.20931038 105.00443375 -53.20931038 105.00443375 -53.14787292 106.05307007 C-53.02265205 108.24321074 -52.91735707 110.43379909 -52.8125 112.625 C-52.73112718 114.10944736 -52.64846087 115.59382442 -52.56445312 117.078125 C-52.36128333 120.71805363 -52.17597045 124.35864369 -52 128 C-51.80229004 127.06406006 -51.60458008 126.12812012 -51.40087891 125.16381836 C-51.13710449 123.92253174 -50.87333008 122.68124512 -50.6015625 121.40234375 C-50.21218506 119.56530884 -50.21218506 119.56530884 -49.81494141 117.69116211 C-49.06519516 114.29529227 -48.24507769 110.92926155 -47.375 107.5625 C-46.54182312 104.32908297 -45.8272193 101.1910326 -45.4375 97.875 C-45 95 -45 95 -43 93 C-39.70285207 93.32971479 -38.3773161 93.6226839 -36 96 C-34.68 94.35 -33.36 92.7 -32 91 C-30.35 91.33 -28.7 91.66 -27 92 C-27 92.66 -27 93.32 -27 94 C-26.34 94 -25.68 94 -25 94 C-25.144375 94.680625 -25.28875 95.36125 -25.4375 96.0625 C-26.85317345 103.45546136 -27.11097179 110.49090865 -27 118 C-24.86095443 116.20802605 -24.86095443 116.20802605 -24.5 113.9375 C-24.335 113.298125 -24.17 112.65875 -24 112 C-23.34 111.67 -22.68 111.34 -22 111 C-20.93463672 108.86414083 -20.93463672 108.86414083 -20 106.3125 C-19.67 105.46300781 -19.34 104.61351562 -19 103.73828125 C-17.00124662 98.26513233 -15.49435748 92.91913446 -14.4375 87.1875 C-13.13372093 80.13372093 -13.13372093 80.13372093 -12 79 C-11.92378584 76.3570834 -11.90924364 73.74005484 -11.9375 71.09765625 C-11.94128662 70.30475693 -11.94507324 69.5118576 -11.94897461 68.69493103 C-11.96539128 65.28882689 -11.99349366 61.88284056 -12.02050781 58.47680664 C-12.03853606 55.99626209 -12.05066786 53.51573682 -12.0625 51.03515625 C-12.07494751 49.87416161 -12.07494751 49.87416161 -12.08764648 48.68971252 C-12.11280669 43.22561338 -12.11280669 43.22561338 -11 41 C-10.79229088 39.46724373 -10.6328314 37.92777056 -10.5 36.38671875 C-10.4175 35.46826172 -10.335 34.54980469 -10.25 33.60351562 C-10.1675 32.64123047 -10.085 31.67894531 -10 30.6875 C-9.83580049 28.7953572 -9.66920879 26.90342017 -9.5 25.01171875 C-9.4278125 24.17084717 -9.355625 23.32997559 -9.28125 22.46362305 C-8.99267627 19.93584741 -8.53304264 17.48669946 -8 15 C-7.34 15 -6.68 15 -6 15 C-5.896875 13.783125 -5.79375 12.56625 -5.6875 11.3125 C-5.09265295 6.51123455 -3.42986371 3.42986371 0 0 Z M-1 28 C-1.99 28.495 -1.99 28.495 -3 29 C-3 29.66 -3 30.32 -3 31 C-2.01 31 -1.02 31 0 31 C-0.33 30.01 -0.66 29.02 -1 28 Z M-73 36 C-73.33 36.99 -73.66 37.98 -74 39 C-74.99 39.66 -75.98 40.32 -77 41 C-78.01324326 43.40972598 -78.01324326 43.40972598 -78.6875 46.125 C-79.06455078 47.49011719 -79.06455078 47.49011719 -79.44921875 48.8828125 C-79.63097656 49.58148438 -79.81273437 50.28015625 -80 51 C-80.66 51 -81.32 51 -82 51 C-82.25394531 51.7734375 -82.50789062 52.546875 -82.76953125 53.34375 C-83.11371094 54.3853125 -83.45789063 55.426875 -83.8125 56.5 C-84.35777344 58.15128906 -84.35777344 58.15128906 -84.9140625 59.8359375 C-85.7643669 62.31344312 -86.68334049 64.70905188 -87.6875 67.125 C-91.04067685 76.06843487 -90.15352514 86.3652294 -90.125 95.75 C-90.12886719 97.03777344 -90.13273438 98.32554687 -90.13671875 99.65234375 C-90.13542969 100.89628906 -90.13414062 102.14023438 -90.1328125 103.421875 C-90.13168457 104.54174805 -90.13055664 105.66162109 -90.12939453 106.81542969 C-90.00178578 109.95604947 -89.58594723 112.91490346 -89 116 C-86.99013946 115.3087118 -86.99013946 115.3087118 -85 114 C-84.08539904 111.96671115 -84.08539904 111.96671115 -83.75 109.625 C-83.60046875 108.85414063 -83.4509375 108.08328125 -83.296875 107.2890625 C-82.91425622 104.72357591 -82.91425622 104.72357591 -83 101 C-82.34 101 -81.68 101 -81 101 C-80.75765625 100.24976563 -80.5153125 99.49953125 -80.265625 98.7265625 C-78.31085961 92.75700972 -76.2325189 86.92119746 -73.734375 81.15625 C-72.78507028 78.74857581 -72.78507028 78.74857581 -73 75 C-72.34 75 -71.68 75 -71 75 C-70.73445313 73.90300781 -70.46890625 72.80601562 -70.1953125 71.67578125 C-69.83873185 70.22130753 -69.4819504 68.76688302 -69.125 67.3125 C-68.95097656 66.59126953 -68.77695312 65.87003906 -68.59765625 65.12695312 C-67.86424164 62.15254941 -67.13712171 59.3316793 -65.96484375 56.49609375 C-64.61242574 52.99732813 -64.06435026 49.43813489 -63.4375 45.75 C-62.12938363 38.12938363 -62.12938363 38.12938363 -61 37 C-60.83333333 34 -60.83333333 34 -61 31 C-62.0317797 29.78332024 -62.0317797 29.78332024 -64.1875 29.5625 C-68.33195634 30.20719321 -70.49506332 32.74199692 -73 36 Z M-3 35 C-3.6878236 37.35367713 -3.6878236 37.35367713 -4 40 C-3.01 41.485 -3.01 41.485 -2 43 C-2 40.36 -2 37.72 -2 35 C-2.33 35 -2.66 35 -3 35 Z M-160 98 C-160.17015625 98.68964844 -160.3403125 99.37929687 -160.515625 100.08984375 C-161.93400437 105.5898361 -163.60767768 110.65292736 -166.015625 115.79296875 C-168.91316196 122.17791975 -168.91316196 122.17791975 -170 129 C-165.05 128.67 -160.1 128.34 -155 128 C-154.91746119 120.24135169 -155.02674811 112.69911761 -156 105 C-156.66 105 -157.32 105 -158 105 C-157.67 102.69 -157.34 100.38 -157 98 C-157.99 98 -158.98 98 -160 98 Z M-37 101 C-37.33 104.3 -37.66 107.6 -38 111 C-37.01 111 -36.02 111 -35 111 C-35.33 107.7 -35.66 104.4 -36 101 C-36.33 101 -36.66 101 -37 101 Z M-11 104 C-11.26554687 104.78246094 -11.53109375 105.56492187 -11.8046875 106.37109375 C-12.15789062 107.38300781 -12.51109375 108.39492187 -12.875 109.4375 C-13.39707031 110.95150391 -13.39707031 110.95150391 -13.9296875 112.49609375 C-15 115 -15 115 -17 116 C-17.226875 117.051875 -17.45375 118.10375 -17.6875 119.1875 C-18.75824054 123.25968645 -20.87199113 125.40620546 -24.125 127.98828125 C-26.92765656 129.50054802 -29.00647007 128.74838248 -32 128 C-33.02104551 128.97850195 -34.0206121 129.97980427 -35 131 C-39.07794425 131.42478586 -40.53076119 131.31282587 -44 129 C-44.33 132.96 -44.66 136.92 -45 141 C-45.66 141 -46.32 141 -47 141 C-47.433125 141.495 -47.86625 141.99 -48.3125 142.5 C-50 144 -50 144 -52.4375 144.3125 C-55.0602702 143.99264998 -56.74208944 143.33802108 -59 142 C-59.66 142.66 -60.32 143.32 -61 144 C-60.67 144.66 -60.34 145.32 -60 146 C-60.66 146 -61.32 146 -62 146 C-62.20496094 146.68707031 -62.40992188 147.37414062 -62.62109375 148.08203125 C-62.89050781 148.98308594 -63.15992188 149.88414062 -63.4375 150.8125 C-63.70433594 151.70582031 -63.97117187 152.59914062 -64.24609375 153.51953125 C-64.80387873 155.35473055 -65.39344575 157.18033726 -66 159 C-58.23359265 158.19657855 -51.78184437 155.92080944 -44.5703125 153.00390625 C-41.52190014 151.81326495 -38.43948158 150.78517233 -35.328125 149.7734375 C-31.87935714 148.62770589 -28.47444538 147.36758794 -25.0625 146.1171875 C-19.38634289 144.04654855 -13.69135804 142.02840458 -8 140 C-8.11911512 135.99796184 -8.24341172 131.99611994 -8.37231445 127.99438477 C-8.41537294 126.6357042 -8.45706565 125.27697959 -8.49731445 123.91821289 C-8.55572893 121.95447697 -8.61961803 119.99090636 -8.68359375 118.02734375 C-8.73858032 116.25991821 -8.73858032 116.25991821 -8.79467773 114.45678711 C-9.0043293 110.92711235 -9.4521498 107.49181389 -10 104 C-10.33 104 -10.66 104 -11 104 Z M-124 142 C-124.70427124 144.10449759 -124.70427124 144.10449759 -125 146 C-125.598125 146.268125 -126.19625 146.53625 -126.8125 146.8125 C-130.17710171 148.63899807 -131.63978154 151.54713775 -133 155 C-133.62837295 160.20651873 -132.78065335 162.67781734 -130 167 C-121.20275662 166.28155846 -115.94405071 164.60911932 -110 158 C-109.51917969 157.47792969 -109.03835937 156.95585937 -108.54296875 156.41796875 C-105.04146212 152.40869077 -101.8571629 148.14290725 -99.875 143.1875 C-99 141 -99 141 -97 140 C-95.68737429 138.91447634 -95.68737429 138.91447634 -95.90234375 136.27734375 C-95.91394531 135.17519531 -95.92554688 134.07304687 -95.9375 132.9375 C-95.94652344 131.83277344 -95.95554688 130.72804687 -95.96484375 129.58984375 C-95.97644531 128.73519531 -95.98804688 127.88054687 -96 127 C-105.01558316 127 -117.68614803 136.05394523 -124 142 Z M-129.8125 130.3125 C-130.51181641 130.44333984 -131.21113281 130.57417969 -131.93164062 130.70898438 C-136.08186423 131.51262917 -140.01190117 132.56628786 -144 134 C-144.24794402 140.5705166 -143.32388229 146.56971459 -142 153 C-139.9136925 150.30052583 -139.9136925 150.30052583 -139.625 147.9375 C-139 146 -139 146 -137.1875 145.0625 C-136.465625 144.711875 -135.74375 144.36125 -135 144 C-133.62131719 142.37064759 -132.28725907 140.70250393 -131 139 C-128.69943937 136.46938331 -126.17254107 134.67774417 -123.3125 132.8125 C-122.50425781 132.28269531 -121.69601563 131.75289062 -120.86328125 131.20703125 C-120.24839844 130.80871094 -119.63351563 130.41039062 -119 130 C-122.88413893 128.70528702 -125.91109544 129.53080425 -129.8125 130.3125 Z M-175 139 C-177.92908235 143.29466804 -180 147.7579142 -180 153 C-179.21689453 153.38478516 -179.21689453 153.38478516 -178.41796875 153.77734375 C-171.54261952 157.35348862 -165.89305196 162.00876357 -160 167 C-156.89396616 169.99658038 -156.89396616 169.99658038 -153 171 C-152.67 171.99 -152.34 172.98 -152 174 C-149.03 173.505 -149.03 173.505 -146 173 C-146 172.01 -146 171.02 -146 170 C-146.66 170 -147.32 170 -148 170 C-148.04898438 169.45214844 -148.09796875 168.90429688 -148.1484375 168.33984375 C-148.88505627 160.52914476 -149.93274598 152.77126716 -151 145 C-151.66 145 -152.32 145 -153 145 C-153.33 142.03 -153.66 139.06 -154 136 C-164.93987663 135.36194119 -164.93987663 135.36194119 -175 139 Z M-195.125 140.5 C-195.87910156 140.54769531 -196.63320312 140.59539062 -197.41015625 140.64453125 C-199.27347291 140.76246268 -201.13674114 140.88115889 -203 141 C-203 142.32 -203 143.64 -203 145 C-202.01 144.95875 -201.02 144.9175 -200 144.875 C-197.02987412 144.85080346 -194.54055099 145.31133281 -191.6875 146.125 C-189.8621875 146.558125 -189.8621875 146.558125 -188 147 C-185.64046906 144.64046906 -185.50858587 143.22104383 -185 140 C-188.38103883 140 -191.75188633 140.28444697 -195.125 140.5 Z M-19.1875 152.25 C-20.71086354 152.89470603 -22.23430069 153.53923816 -23.7578125 154.18359375 C-25.17188248 154.78904504 -26.58594567 155.39451216 -28 156 C-33.97367238 158.51322022 -39.69529219 160.50396764 -46 162 C-46.86625 162.350625 -47.7325 162.70125 -48.625 163.0625 C-51.39130214 164.15446137 -54.06220567 164.59007521 -57 165 C-54.73773322 168.39340018 -54.26825151 168.45829011 -50.5625 169.5625 C-44.80404919 171.52526109 -39.55132011 174.16269533 -34.1875 177 C-33.37547119 177.42740479 -32.56344238 177.85480957 -31.72680664 178.29516602 C-27.30947782 180.65595608 -23.1297957 183.16919049 -19 186 C-17.30634898 186.95867039 -15.61247335 187.91697526 -13.9140625 188.8671875 C-11.73190692 190.15866733 -9.65546539 191.56872813 -7.5625 193 C-1.19572138 197.68109573 -1.19572138 197.68109573 6 200 C5.50130596 194.63108121 4.97772468 189.30764827 4 184 C3.34 184 2.68 184 2 184 C1.94392578 182.93072266 1.94392578 182.93072266 1.88671875 181.83984375 C1.82097656 180.88207031 1.75523437 179.92429688 1.6875 178.9375 C1.62949219 177.99777344 1.57148438 177.05804688 1.51171875 176.08984375 C0.90085573 172.40135027 -0.52236272 169.42930355 -2 166 C-2.6858941 163.4064732 -3.14475677 160.83411518 -3.625 158.1875 C-4.37454705 153.4605071 -4.37454705 153.4605071 -6 149 C-10.99782831 148.48941636 -14.71330256 150.29973415 -19.1875 152.25 Z M-95 151 C-95.598125 152.093125 -96.19625 153.18625 -96.8125 154.3125 C-98.35654541 157.13437609 -99.62651678 158.62651678 -102 161 C-98.37 161 -94.74 161 -91 161 C-91.8530248 157.5879008 -92.86642725 154.32514673 -94 151 C-94.33 151 -94.66 151 -95 151 Z M-185 159 C-186.36819481 160.68207932 -186.36819481 160.68207932 -187.625 162.8125 C-188.07101563 163.52019531 -188.51703125 164.22789062 -188.9765625 164.95703125 C-190.22394864 167.06621207 -190.22394864 167.06621207 -190 170 C-190.66 170 -191.32 170 -192 170 C-192.268125 171.27875 -192.53625 172.5575 -192.8125 173.875 C-193.57190099 177.49675855 -193.70077803 177.80051868 -197 180 C-198.1456078 181.84592149 -198.1456078 181.84592149 -199.0625 183.9375 C-200.25277526 186.49491873 -201.41996053 188.6299408 -203 191 C-193.91057196 190.15447181 -185.26764352 187.05597441 -176.9375 183.4375 C-171.10111184 180.91281406 -165.20218266 179.35260367 -159 178 C-159 177.34 -159 176.68 -159 176 C-160.81319283 174.35711054 -160.81319283 174.35711054 -163.125 172.6875 C-165.83902048 170.64564347 -168.44118306 168.61396482 -171 166.375 C-177.38357 161.20221441 -177.38357 161.20221441 -185 159 Z M-118 175 C-122.13239741 177.0661987 -125.38564562 177.25635302 -130 177 C-130.99 176.67 -131.98 176.34 -133 176 C-133.66 176.66 -134.32 177.32 -135 178 C-134.34 179.98 -133.68 181.96 -133 184 C-126.78692143 183.4597323 -121.70479 181.44375401 -116 179 C-113.91754902 178.12290211 -111.83419905 177.24793591 -109.75 176.375 C-108.79609375 175.97023437 -107.8421875 175.56546875 -106.859375 175.1484375 C-103.93770746 173.97498086 -100.99529663 172.96834247 -98 172 C-96.88625 171.62875 -95.7725 171.2575 -94.625 170.875 C-93.75875 170.58625 -92.8925 170.2975 -92 170 C-92 169.67 -92 169.34 -92 169 C-102.10819556 168.72680553 -109.38988957 169.57493042 -118 175 Z M-173 189 C-178.14452187 191.0173007 -183.36642421 192.8054677 -188.625 194.5 C-192.45141588 195.7595853 -196.09239799 197.27668858 -199.73828125 198.98828125 C-202 200 -202 200 -204.35546875 200.79296875 C-211.31366507 203.2755413 -213.83255105 207.49120294 -217 214 C-212.36617467 213.51730986 -208.57424932 212.52119466 -204.19873047 210.83569336 C-200.52018376 209.43755152 -196.79281117 208.18947568 -193.0625 206.9375 C-192.31548828 206.68162109 -191.56847656 206.42574219 -190.79882812 206.16210938 C-187.19302357 204.95187816 -183.67616811 203.90407509 -179.9375 203.19921875 C-172.67723467 201.66754054 -165.81638789 198.59954526 -158.9375 195.875 C-157.48526227 195.30538694 -156.03279 194.73637148 -154.58007812 194.16796875 C-151.05064278 192.78552281 -147.52448268 191.39502151 -144 190 C-144.78375 189.21625 -145.5675 188.4325 -146.375 187.625 C-147.91666667 186.08333333 -149.45833333 184.54166667 -151 183 C-158.61886019 183 -166.35494629 185.38855776 -173 189 Z M-230.9375 211.6875 C-239.1558493 215.46205131 -247.50591857 218.89639333 -256 222 C-255.01 222.33 -254.02 222.66 -253 223 C-253 223.66 -253 224.32 -253 225 C-252.01 225 -251.02 225 -250 225 C-249.67 224.01 -249.34 223.02 -249 222 C-247.58366664 221.83052421 -246.16691467 221.66454493 -244.75 221.5 C-243.96109375 221.4071875 -243.1721875 221.314375 -242.359375 221.21875 C-240 221 -240 221 -236 221 C-236 220.34 -236 219.68 -236 219 C-234.9275 218.9175 -233.855 218.835 -232.75 218.75 C-228.67542358 217.93508472 -227.43567909 217.27879877 -225 214 C-224.2127322 211.8618034 -224.2127322 211.8618034 -224 210 C-227.06725398 210 -228.23364144 210.41361506 -230.9375 211.6875 Z M-261 223 C-260.67 223.66 -260.34 224.32 -260 225 C-259.01 224.67 -258.02 224.34 -257 224 C-258.32 223.67 -259.64 223.34 -261 223 Z " fill="#000000" transform="translate(328,57)"/>
<path d="M0 0 C0.66 0 1.32 0 2 0 C2 0.66 2 1.32 2 2 C2.66 2 3.32 2 4 2 C3.67 5.3 3.34 8.6 3 12 C2.34 12 1.68 12 1 12 C0.01751476 7.9472484 -0.08159574 4.16138263 0 0 Z " fill="#C3C3C3" transform="translate(288,166)"/>
<path d="M0 0 C0.66 0 1.32 0 2 0 C2.33 2.97 2.66 5.94 3 9 C2.01 9.33 1.02 9.66 0 10 C-0.33 9.67 -0.66 9.34 -1 9 C-0.91062197 7.47480724 -0.75462854 5.95318071 -0.5625 4.4375 C-0.46066406 3.61121094 -0.35882813 2.78492188 -0.25390625 1.93359375 C-0.17011719 1.29550781 -0.08632813 0.65742188 0 0 Z " fill="#CCCCCC" transform="translate(268,190)"/>
<path d="M0 0 C0.66 0 1.32 0 2 0 C2.33 2.31 2.66 4.62 3 7 C3.66 7 4.32 7 5 7 C5 7.66 5 8.32 5 9 C3.68 9 2.36 9 1 9 C0.67 6.03 0.34 3.06 0 0 Z " fill="#AEAEAE" transform="translate(187,220)"/>
<path d="M0 0 C1.32 0.66 2.64 1.32 4 2 C4 2.99 4 3.98 4 5 C2.35 5 0.7 5 -1 5 C-0.67 3.35 -0.34 1.7 0 0 Z " fill="#616161" transform="translate(236,226)"/>
<path d="M0 0 C0.66 0 1.32 0 2 0 C2 1.98 2 3.96 2 6 C1.01 6.33 0.02 6.66 -1 7 C-0.67 4.69 -0.34 2.38 0 0 Z " fill="#AFAFAF" transform="translate(318,154)"/>
</svg>
